<svg width="34" height="34" viewBox="0 0 34 34" fill="none" xmlns="http://www.w3.org/2000/svg">
<path d="M24.7922 10.7579C22.7815 10.7579 20.9196 11.4063 19.4036 12.5042C18.7796 11.7694 18.1151 11.1598 17.3895 10.6562C17.8248 10.102 18.2548 9.69732 18.6825 9.43861L18.6817 9.43733C18.8456 9.33829 18.9359 9.1494 18.9039 8.95728C18.4449 6.18937 17.4772 3.88856 16.1051 2.30364C14.819 0.818161 13.1956 0 11.5339 0C9.87213 0 8.24869 0.818162 6.96255 2.30371C5.59054 3.88863 4.62269 6.18944 4.16375 8.95734C4.13184 9.14947 4.22211 9.33836 4.38597 9.43739L4.38522 9.43867C4.80766 9.69415 5.2469 10.0953 5.70145 10.6398C3.61179 12.0801 1.98039 14.4226 0.595898 17.9577C-0.0721634 19.6635 -0.173624 20.7901 0.266961 21.6106C0.615462 22.2599 1.29452 22.6853 2.34299 22.911C2.92072 23.0354 3.61118 23.1442 4.39824 23.2354V24.0238C4.39824 24.4731 4.76375 24.8387 5.21303 24.8387H16.9831C17.0866 25.004 17.1949 25.1658 17.3084 25.3239L16.2836 26.3485C15.9373 26.3097 15.5771 26.4219 15.312 26.687L11.3276 30.6714C10.567 31.4321 10.567 32.6697 11.3276 33.4304C11.708 33.8108 12.2075 34.0009 12.7071 34.0009C13.2067 34.0009 13.7062 33.8107 14.0865 33.4304L18.071 29.446C18.336 29.1809 18.4483 28.8207 18.4094 28.4744L19.4341 27.4496C20.9445 28.5341 22.795 29.1736 24.7922 29.1736C29.8694 29.1736 34 25.043 34 19.9658C34 14.8885 29.8694 10.7579 24.7922 10.7579H24.7922ZM18.6678 13.0965C18.1449 13.5631 17.6754 14.0882 17.2698 14.6617H15.1716C15.7426 13.3442 16.2978 12.2686 16.843 11.4265C17.4977 11.8799 18.0999 12.4308 18.6678 13.0965ZM9.19921 14.6617C7.83806 11.7988 6.56899 9.92196 5.33844 8.95451C5.92002 8.33421 6.5248 7.80444 7.14672 7.36811C7.1165 8.83376 7.59007 10.3681 8.4535 11.4851C9.2606 12.5292 10.3152 13.1218 11.5033 13.1989C11.5134 13.1995 11.5236 13.1999 11.5338 13.1999C11.544 13.1999 11.5542 13.1995 11.5644 13.1989C12.7524 13.1218 13.807 12.5292 14.6141 11.4852C15.4776 10.3681 15.9512 8.83382 15.921 7.36818C16.5432 7.80478 17.1483 8.33495 17.7301 8.95566C16.5231 9.91576 15.3694 11.7544 14.1443 14.6618H9.19914L9.19921 14.6617ZM8.1365 6.79692C9.16663 7.19379 10.3348 7.40299 11.5338 7.40299C12.7329 7.40299 13.9013 7.19372 14.9312 6.79692C15.1264 8.21568 14.7211 9.80249 13.8669 10.9074C13.427 11.4765 12.6663 12.1693 11.5338 12.2542C10.4014 12.1693 9.64067 11.4765 9.20076 10.9074C8.34664 9.80242 7.94127 8.21568 8.1365 6.79692ZM11.5338 6.45854C10.8085 6.45854 10.0978 6.37462 9.43046 6.21271C10.1227 5.99137 10.8261 5.87824 11.5339 5.87824C12.2417 5.87824 12.9451 5.99131 13.6373 6.21271C12.9701 6.37455 12.2592 6.45854 11.5338 6.45854ZM7.67662 2.92178C8.78055 1.64664 10.1504 0.94438 11.5339 0.94438C12.9174 0.94438 14.2871 1.64664 15.3911 2.92178C16.3854 4.07037 17.1514 5.6482 17.6414 7.54108C15.7627 5.8296 13.6758 4.93386 11.5339 4.93386C9.39194 4.93386 7.30492 5.8296 5.42628 7.54108C5.91638 5.6482 6.68232 4.07043 7.67662 2.92178ZM4.39818 15.4765V22.2843C3.68735 22.1994 3.06361 22.1001 2.54173 21.9878C1.78051 21.8238 1.30855 21.5543 1.09895 21.1639C0.805229 20.6168 0.924769 19.7074 1.47511 18.302C2.79606 14.9292 4.3289 12.7189 6.27473 11.3919C6.87675 12.2467 7.50305 13.3381 8.1504 14.6616H5.2129C4.76361 14.6616 4.39811 15.0271 4.39811 15.4764L4.39818 15.4765ZM5.34262 23.8943V15.6061H16.6838C15.9828 16.9046 15.5843 18.3895 15.5843 19.9658C15.5843 21.3703 15.9009 22.702 16.4657 23.8943H5.34262ZM17.4032 28.7781L13.4186 32.7626C13.0262 33.1551 12.3878 33.155 11.9954 32.7626C11.8064 32.5736 11.7023 32.3209 11.7023 32.0509C11.7023 31.7809 11.8064 31.5282 11.9954 31.3393L15.9798 27.3548C16.0268 27.3078 16.0885 27.2843 16.1502 27.2843C16.2119 27.2843 16.2737 27.3078 16.3207 27.3548L17.403 28.437C17.4971 28.5312 17.4971 28.6841 17.403 28.7781H17.4032ZM17.9249 27.6232L17.1347 26.833L17.9016 26.0662C18.1489 26.3452 18.4128 26.6091 18.6917 26.8563L17.9249 27.6232ZM24.7922 28.2291C20.2358 28.2291 16.5288 24.5222 16.5288 19.9658C16.5288 15.4093 20.2358 11.7024 24.7922 11.7024C29.3486 11.7024 33.0555 15.4093 33.0555 19.9658C33.0555 24.5222 29.3486 28.2291 24.7922 28.2291ZM24.7922 12.8197C20.8519 12.8197 17.6461 16.0255 17.6461 19.9658C17.6461 23.9061 20.8519 27.1118 24.7922 27.1118C28.7325 27.1118 31.9382 23.9061 31.9382 19.9658C31.9382 16.0255 28.7325 12.8197 24.7922 12.8197ZM24.7922 26.1673C21.3727 26.1673 18.5906 23.3853 18.5906 19.9657C18.5906 16.5461 21.3726 13.7641 24.7922 13.7641C28.2117 13.7641 30.9938 16.5461 30.9938 19.9657C30.9938 23.3853 28.2117 26.1673 24.7922 26.1673ZM29.9606 19.8978C28.6479 18.4239 26.764 17.5785 24.7922 17.5785C22.8203 17.5785 20.9365 18.4239 19.6238 19.8978C19.4643 20.0768 19.4643 20.3469 19.6238 20.526C20.9365 22 22.8204 22.8453 24.7922 22.8453C26.764 22.8453 28.6478 22 29.9606 20.526C30.12 20.347 30.12 20.0769 29.9606 19.8978ZM24.7922 18.5584C25.3948 18.5584 25.885 19.0486 25.885 19.6512C25.885 20.2537 25.3947 20.744 24.7922 20.744C24.1896 20.744 23.6994 20.2537 23.6994 19.6512C23.6994 19.0486 24.1897 18.5584 24.7922 18.5584ZM24.7922 21.9009C23.2349 21.9009 21.7411 21.2901 20.63 20.2119C21.2857 19.5756 22.0752 19.1038 22.9318 18.8226C22.8185 19.076 22.755 19.3563 22.755 19.6513C22.755 20.7746 23.6689 21.6885 24.7922 21.6885C25.9155 21.6885 26.8294 20.7746 26.8294 19.6513C26.8294 19.3563 26.7659 19.076 26.6526 18.8226C27.5092 19.1039 28.2987 19.5757 28.9544 20.212C27.8432 21.2901 26.3494 21.9009 24.7922 21.9009V21.9009ZM21.6319 16.7386C21.5014 16.5127 21.5789 16.2239 21.8047 16.0935C22.0306 15.9632 22.3193 16.0406 22.4497 16.2664L22.8008 16.8744C22.9312 17.1003 22.8538 17.3891 22.628 17.5195C22.5536 17.5624 22.4724 17.5828 22.3923 17.5828C22.2291 17.5828 22.0704 17.4981 21.9829 17.3466L21.6319 16.7386ZM24.32 16.801V15.9579C24.32 15.6971 24.5314 15.4856 24.7922 15.4856C25.053 15.4856 25.2644 15.6971 25.2644 15.9579V16.801C25.2644 17.0619 25.053 17.2733 24.7922 17.2733C24.5314 17.2733 24.32 17.0619 24.32 16.801ZM26.7835 16.8744L27.1345 16.2664C27.265 16.0406 27.5538 15.9633 27.7796 16.0935C28.0055 16.224 28.0828 16.5128 27.9524 16.7386L27.6014 17.3467C27.5139 17.4982 27.3551 17.5828 27.1919 17.5828C27.1118 17.5828 27.0307 17.5624 26.9563 17.5196C26.7305 17.3891 26.6531 17.1002 26.7835 16.8744ZM21.0332 8.84597H28.5513C28.9734 8.84597 29.3513 8.6278 29.5624 8.26223C29.7735 7.89659 29.7735 7.46012 29.5624 7.09462L25.8034 0.583736C25.5923 0.218235 25.2144 6.74557e-05 24.7923 6.74557e-05C24.3702 6.74557e-05 23.9922 0.218302 23.7812 0.583804L20.0221 7.09483C19.8112 7.46026 19.8112 7.89673 20.0221 8.26243C20.2333 8.62793 20.6112 8.8461 21.0332 8.8461V8.84597ZM20.84 7.56685L24.5991 1.05582C24.6424 0.980876 24.7056 0.94438 24.7922 0.94438C24.8789 0.94438 24.9421 0.980876 24.9855 1.05589L28.7446 7.56691C28.7879 7.64193 28.7879 7.71486 28.7446 7.78994C28.7012 7.86502 28.638 7.90152 28.5513 7.90152H21.0333C20.9466 7.90152 20.8833 7.86502 20.8401 7.79014C20.7967 7.71499 20.7967 7.64193 20.8401 7.56685H20.84ZM24.32 5.29572V2.94391C24.32 2.68311 24.5314 2.47169 24.7922 2.47169C25.053 2.47169 25.2645 2.68311 25.2645 2.94391V5.29572C25.2645 5.55652 25.053 5.76794 24.7922 5.76794C24.5314 5.76794 24.32 5.55652 24.32 5.29572ZM24.32 6.81338V6.7582C24.32 6.4974 24.5314 6.28597 24.7922 6.28597C25.053 6.28597 25.2645 6.4974 25.2645 6.7582V6.81338C25.2645 7.07418 25.053 7.2856 24.7922 7.2856C24.5314 7.2856 24.32 7.07418 24.32 6.81338Z" fill="url(#paint0_linear_683_1426)"/>
<defs>
<linearGradient id="paint0_linear_683_1426" x1="8.9664" y1="32.1443" x2="26.921" y2="1.04618" gradientUnits="userSpaceOnUse">
<stop stop-color="#1751FF"/>
<stop offset="1" stop-color="#5CC5FF"/>
</linearGradient>
</defs>
</svg>
