<svg width="34" height="34" viewBox="0 0 34 34" fill="none" xmlns="http://www.w3.org/2000/svg">
<path d="M13.8844 33.4685H20.1145L20.8044 29.3288C21.5771 29.0943 22.3223 28.7838 23.026 28.4043L26.4411 30.8467L30.8499 26.4449L28.4075 23.0297C28.787 22.3259 29.0974 21.5808 29.3389 20.8012L33.4716 20.1113V13.8881L29.3389 13.1981C29.0974 12.4184 28.787 11.6734 28.4075 10.9696L30.8499 7.55445L28.5635 5.27173L27.4908 6.45252L28.767 7.72695L26.5331 10.8506L27.0042 11.7253C27.3326 12.3339 27.6054 12.9881 27.8161 13.6693L28.1066 14.6083L31.8778 15.2381V18.7613L28.1066 19.3911L27.8161 20.3301C27.6054 21.0113 27.3326 21.6655 27.0042 22.2741L26.5331 23.1488L28.767 26.2724L26.2706 28.7653L23.1443 26.5293L22.2696 27.0014C21.659 27.3308 21.0105 27.6006 20.3417 27.8034L19.3949 28.0908L18.7646 31.8744H15.2342L14.6038 28.0908L13.657 27.8034C13.3232 27.7021 12.9945 27.5842 12.6729 27.4504C12.6729 27.4504 12.4155 28.0255 12.0273 28.9064C12.4081 29.0661 12.7972 29.2082 13.1944 29.3288L13.8844 33.4685Z" fill="#FFE9B2"/>
<path d="M13.8164 22.5083C13.8164 23.2239 13.2348 23.8056 12.5157 23.8056C11.8 23.8056 11.2148 23.2239 11.2148 22.5083C11.2148 21.7892 11.8 21.2075 12.5157 21.2075C13.2348 21.2075 13.8164 21.7892 13.8164 22.5083Z" fill="#F69A8B"/>
<path d="M24.8789 22.5083C24.8789 23.2239 24.2973 23.8056 23.5782 23.8056C22.8625 23.8056 22.2773 23.2239 22.2773 22.5083C22.2773 21.7892 22.8625 21.2075 23.5782 21.2075C24.2973 21.2075 24.8789 21.7892 24.8789 22.5083Z" fill="#F69A8B"/>
<path d="M25.7337 12.3426C20.8073 12.3426 16.9587 12.3426 12.049 12.3426L11.474 10.6441C11.4149 10.4693 11.2696 10.3375 11.0896 10.2965L8.38459 9.676C8.09873 9.60856 7.81339 9.7891 7.74803 10.075C7.68214 10.3608 7.86112 10.6462 8.14698 10.7115L10.5625 11.2656C10.9168 12.312 12.6578 17.4548 13.3614 19.5332L12.9411 20.7306C12.8042 20.6979 12.6635 20.6761 12.5168 20.6761C11.5062 20.6761 10.6844 21.4979 10.6844 22.5085C10.6844 23.5165 11.5062 24.3367 12.5168 24.3367C13.3406 24.3367 14.0308 23.7877 14.2605 23.0397H21.8329C22.0626 23.7877 22.7529 24.3367 23.5766 24.3367C24.5867 24.3367 25.4085 23.5165 25.4085 22.5085C25.4085 21.4979 24.5867 20.6761 23.5766 20.6761C22.7523 20.6761 22.0618 21.2268 21.8325 21.9772H14.2609C14.1816 21.7176 14.0493 21.483 13.8718 21.2863L14.2997 20.0675H23.1647C23.3841 20.0675 23.5812 19.9321 23.6601 19.7272C24.5797 17.3423 25.3094 15.45 26.2292 13.0648C26.2925 12.9014 26.2707 12.7177 26.1716 12.5735C26.0725 12.4288 25.9091 12.3426 25.7337 12.3426ZM24.0851 15.6728H21.2072L21.4966 13.4051H24.9597L24.0851 15.6728ZM20.4254 13.4051L20.1359 15.6728H17.2213L16.9671 13.4051H20.4254ZM15.8978 13.4051L16.1519 15.6728H13.1764L12.4089 13.4051H15.8978ZM14.3043 19.005L13.536 16.7353H16.271L16.5253 19.005H14.3043ZM12.5168 23.2742C12.0924 23.2742 11.7469 22.9308 11.7469 22.5085C11.7469 22.0841 12.0924 21.7386 12.5168 21.7386C12.9412 21.7386 13.2862 22.0841 13.2862 22.5085C13.2862 22.9308 12.9412 23.2742 12.5168 23.2742ZM23.5766 21.7386C24.001 21.7386 24.346 22.0841 24.346 22.5085C24.346 22.9308 24.001 23.2742 23.5766 23.2742C23.154 23.2742 22.8106 22.9335 22.8077 22.5136C22.8077 22.5118 22.8088 22.5103 22.8088 22.5085C22.8088 22.5067 22.8077 22.5051 22.8077 22.5033C22.8106 22.0814 23.154 21.7386 23.5766 21.7386ZM17.5948 19.005L17.3404 16.7353H20.0002L19.7105 19.005H17.5948ZM22.7999 19.005H20.7819L21.0716 16.7353H23.6753L22.7999 19.005Z" fill="#FFB700"/>
<path d="M33.5564 13.3643L29.7422 12.7277C29.5425 12.1347 29.3028 11.5609 29.0268 11.0136L31.2794 7.86396C31.4304 7.65228 31.4065 7.36227 31.2229 7.17862L26.8141 2.77662C26.6294 2.59296 26.341 2.57065 26.1293 2.72058L22.9797 4.97321C22.4308 4.69617 21.8585 4.45804 21.2723 4.26297L20.6357 0.444093C20.5932 0.187807 20.3717 0 20.1118 0H13.8815C13.6216 0 13.4001 0.187807 13.3575 0.444093L12.7209 4.26297C12.1347 4.45804 11.5625 4.69617 11.0136 4.97321L7.86395 2.72058C7.6528 2.57065 7.36435 2.59296 7.17914 2.77662L2.77038 7.17862C2.58673 7.36227 2.56286 7.65228 2.71383 7.86396L4.96801 11.0157C4.69668 11.5604 4.457 12.1342 4.25362 12.7272L0.443562 13.3643C0.187807 13.4073 0 13.6288 0 13.8882V20.1112C0 20.3706 0.187807 20.5922 0.443572 20.6352L4.25363 21.2723C4.457 21.8653 4.69669 22.4391 4.96802 22.9844L2.71384 26.136C2.56287 26.3477 2.58673 26.6377 2.7709 26.8214L7.17966 31.2229C7.36383 31.407 7.6528 31.4293 7.86396 31.2789L11.0136 29.0263C11.5625 29.3033 12.1347 29.5414 12.721 29.7365L13.3575 33.5559C13.4001 33.8122 13.6216 34 13.8815 34H20.1118C20.3717 34 20.5932 33.8122 20.6357 33.5559L21.2723 29.7365C21.8586 29.5414 22.4308 29.3033 22.9797 29.0263L26.1293 31.2789C26.341 31.4293 26.6305 31.407 26.8136 31.2229L31.2224 26.8214C31.4065 26.6377 31.4304 26.3477 31.2794 26.136L29.0268 22.9864C29.3028 22.4386 29.543 21.8643 29.7422 21.2718L33.5564 20.6352C33.8122 20.5927 34 20.3706 34 20.1112V13.8882C34 13.6288 33.8122 13.4068 33.5564 13.3643ZM32.9375 19.6614L29.2483 20.2773C29.0501 20.3105 28.8878 20.4521 28.8286 20.644C28.5972 21.3911 28.2974 22.1086 27.9368 22.7779C27.8408 22.9563 27.8548 23.1742 27.9726 23.3392L30.1531 26.3877L26.3814 30.1531L23.3325 27.9721C23.1659 27.8533 22.9485 27.8403 22.7711 27.9368C22.0982 28.2994 21.3838 28.5967 20.6477 28.8203C20.4542 28.8789 20.311 29.0424 20.2778 29.2416L19.662 32.9375H14.3313L13.7155 29.2416C13.6823 29.0424 13.5391 28.8789 13.3456 28.8203C12.6094 28.5967 11.895 28.2994 11.2221 27.9368C11.0442 27.8408 10.8263 27.8533 10.6608 27.9721L7.61181 30.1531L3.84015 26.3877L6.02066 23.3392C6.13791 23.1753 6.15244 22.9594 6.05801 22.7815C5.70419 22.1128 5.40329 21.3922 5.16361 20.6399C5.10291 20.45 4.94156 20.3099 4.74493 20.2773L1.0625 19.6614V14.338L4.74493 13.7222C4.94156 13.6895 5.10291 13.5495 5.16361 13.3596C5.40329 12.6068 5.7042 11.8867 6.05801 11.2185C6.15243 11.0406 6.13791 10.8247 6.02066 10.6608L3.84015 7.61233L7.61182 3.84637L10.6608 6.0274C10.8263 6.14517 11.0437 6.15814 11.2221 6.06268C11.895 5.70004 12.6094 5.40277 13.3456 5.17917C13.5391 5.12054 13.6823 4.95712 13.7155 4.7579L14.3313 1.0625H19.662L20.2778 4.7579C20.311 4.95712 20.4542 5.12054 20.6477 5.17917C21.3838 5.40277 22.0982 5.70004 22.7711 6.06268C22.9491 6.15866 23.1664 6.14569 23.3325 6.0274L26.3814 3.84637L30.1531 7.61233L27.9726 10.6608C27.8548 10.8258 27.8408 11.0437 27.9373 11.2221C28.2974 11.8903 28.5972 12.6084 28.8286 13.3554C28.8878 13.5474 29.0501 13.689 29.2483 13.7222L32.9375 14.338V19.6614Z" fill="url(#paint0_linear_638_1427)"/>
<defs>
<linearGradient id="paint0_linear_638_1427" x1="17" y1="0" x2="17" y2="34" gradientUnits="userSpaceOnUse">
<stop stop-color="#FBCA4D"/>
<stop offset="1" stop-color="#F0AC00"/>
</linearGradient>
</defs>
</svg>
